<svg width="6.409668" height="6.400024" viewBox="0 0 6.40967 6.40002" fill="none" xmlns="http://www.w3.org/2000/svg" xmlns:xlink="http://www.w3.org/1999/xlink">
	<desc>
			Created with Pixso.
	</desc>
	<defs/>
	<path id="Vector" d="M3.21 0L3.2 0C1.43 -0.01 0 1.42 0 3.19C-0.01 4.96 1.42 6.39 3.19 6.4L3.2 6.4C4.97 6.4 6.4 4.97 6.4 3.2C6.41 1.43 4.98 0 3.21 0ZM3.96 3.95C3.76 4.15 3.48 4.26 3.2 4.26C2.61 4.26 2.14 3.78 2.14 3.19C2.14 2.91 2.25 2.64 2.45 2.44C2.65 2.24 2.92 2.13 3.2 2.13C3.79 2.13 4.26 2.61 4.26 3.2C4.26 3.48 4.15 3.75 3.95 3.95C3.75 4.15 3.96 3.95 3.96 3.95Z" fill="#4D5AE5" fill-opacity="1.000000" fill-rule="nonzero"/>
</svg>
