<svg width="61.218262" height="63.999878" viewBox="0 0 61.2183 63.9999" fill="none" xmlns="http://www.w3.org/2000/svg" xmlns:xlink="http://www.w3.org/1999/xlink">
	<desc>
			Created with Pixso.
	</desc>
	<defs/>
	<path id="Vector" d="M61.21 30.6C61.21 13.69 47.5 -0.01 30.6 0C13.69 0 -0.01 13.71 0 30.61C0 43.93 8.61 55.71 21.29 59.76C21.41 59.8 21.54 59.82 21.67 59.82C21.91 59.82 22.14 59.76 22.35 59.63C22.62 59.47 22.82 59.22 22.92 58.92L30.65 34.42C32.76 34.41 34.47 32.69 34.46 30.57C34.44 28.46 32.72 26.76 30.61 26.77C30.04 26.77 29.48 26.9 28.97 27.15L18.76 16.94C18.25 16.45 17.44 16.46 16.95 16.97C16.48 17.46 16.48 18.25 16.95 18.74L27.16 28.96C26.38 30.56 26.83 32.49 28.23 33.58L20.87 56.92C6.31 51.56 -1.14 35.41 4.22 20.86C9.58 6.3 25.73 -1.15 40.28 4.21C54.84 9.57 62.29 25.72 56.93 40.28C54.31 47.39 48.93 53.14 42.01 56.22L41.21 52.47C41.07 51.79 40.39 51.34 39.7 51.49C39.48 51.54 39.28 51.64 39.11 51.79L31.44 58.64C30.91 59.11 30.87 59.91 31.34 60.44C31.49 60.61 31.68 60.74 31.9 60.81L41.7 63.93C42.37 64.15 43.09 63.78 43.3 63.11C43.37 62.9 43.38 62.67 43.34 62.45L42.56 58.78C53.88 54 61.24 42.89 61.21 30.6ZM30.6 29.32C31.31 29.32 31.88 29.89 31.88 30.6C31.88 31.3 31.31 31.87 30.6 31.87C29.9 31.87 29.33 31.3 29.33 30.6C29.33 29.89 29.9 29.32 30.6 29.32ZM34.81 59.05L39.17 55.15L40.38 60.83L34.81 59.05Z" fill="#2E2F42" fill-opacity="1.000000" fill-rule="nonzero"/>
</svg>
