<svg width="64.000244" height="49.085571" viewBox="0 0 64.0002 49.0856" fill="none" xmlns="http://www.w3.org/2000/svg" xmlns:xlink="http://www.w3.org/1999/xlink">
	<desc>
			Created with Pixso.
	</desc>
	<defs/>
	<path id="Vector" d="M3.19 49.08L54.37 49.08C56.13 49.08 57.56 47.65 57.56 45.88L57.56 41.62C57.56 39.85 56.13 38.42 54.37 38.42L53.3 38.42L53.3 11.83L59.36 6.1C60.76 6.79 62.46 6.37 63.38 5.1C64.3 3.83 64.17 2.08 63.08 0.96C61.98 -0.16 60.24 -0.33 58.95 0.57C57.66 1.46 57.2 3.15 57.86 4.57L53.3 8.9L53.3 6.44C53.3 4.67 51.87 3.24 50.1 3.24L7.46 3.24C5.69 3.24 4.26 4.67 4.26 6.44L4.26 38.42L3.19 38.42C1.43 38.42 0 39.85 0 41.62L0 45.88C0 47.65 1.43 49.08 3.19 49.08ZM60.76 2.17C61.35 2.17 61.83 2.65 61.83 3.24C61.83 3.83 61.35 4.3 60.76 4.3C60.17 4.3 59.7 3.83 59.7 3.24C59.7 2.65 60.17 2.17 60.76 2.17ZM6.39 6.44C6.39 5.85 6.87 5.37 7.46 5.37L50.1 5.37C50.69 5.37 51.17 5.85 51.17 6.44L51.17 10.91L49.04 12.94L49.04 8.57C49.04 7.98 48.56 7.5 47.97 7.5L9.59 7.5C9 7.5 8.52 7.98 8.52 8.57L8.52 35.22C8.52 35.81 9 36.29 9.59 36.29L47.97 36.29C48.56 36.29 49.04 35.81 49.04 35.22L49.04 15.87L51.17 13.85L51.17 38.42L6.39 38.42L6.39 6.44ZM15.99 20.3C14.54 20.29 13.28 21.25 12.89 22.64C12.51 24.03 13.1 25.51 14.34 26.24C15.58 26.98 17.16 26.8 18.2 25.79L21.91 27.65C22.34 27.87 22.86 27.77 23.18 27.41L31.06 18.54L38.8 24.35C39.22 24.66 39.8 24.62 40.17 24.27L46.9 17.89L46.9 34.16L10.66 34.16L10.66 9.63L46.9 9.63L46.9 14.96L39.36 22.1L31.55 16.24C31.11 15.91 30.48 15.97 30.12 16.39L22.13 25.37L19.14 23.88C19.17 23.75 19.18 23.62 19.18 23.49C19.18 21.73 17.75 20.3 15.99 20.3ZM17.05 23.49C17.05 24.08 16.58 24.56 15.99 24.56C15.4 24.56 14.92 24.08 14.92 23.49C14.92 22.91 15.4 22.43 15.99 22.43C16.58 22.43 17.05 22.91 17.05 23.49ZM23.45 40.55L34.11 40.55L34.11 41.62C34.11 42.21 33.63 42.68 33.04 42.68L24.52 42.68C23.93 42.68 23.45 42.21 23.45 41.62L23.45 40.55ZM2.13 41.62C2.13 41.03 2.6 40.55 3.19 40.55L21.32 40.55L21.32 41.62C21.32 43.38 22.75 44.82 24.52 44.82L33.04 44.82C34.81 44.82 36.24 43.38 36.24 41.62L36.24 40.55L54.37 40.55C54.96 40.55 55.43 41.03 55.43 41.62L55.43 45.88C55.43 46.47 54.96 46.95 54.37 46.95L3.19 46.95C2.6 46.95 2.13 46.47 2.13 45.88L2.13 41.62Z" fill="#2E2F42" fill-opacity="1.000000" fill-rule="nonzero"/>
</svg>
