<svg width="50.133667" height="55.463257" viewBox="0 0 50.1337 55.4633" fill="none" xmlns="http://www.w3.org/2000/svg" xmlns:xlink="http://www.w3.org/1999/xlink">
	<desc>
			Created with Pixso.
	</desc>
	<defs/>
	<path id="Vector" d="M49.42 23.53C48.85 22.76 48.01 22.26 47.05 22.13C46.09 21.99 45.14 22.24 44.37 22.83L41.86 24.75L41.86 24.75L38.07 27.58L35.35 26.5C40.2 24.33 43.58 19.49 43.58 13.86C43.58 6.22 37.33 0 29.66 0C21.98 0 15.74 6.22 15.74 13.86C15.74 16.63 16.56 19.21 17.98 21.38L12.45 21.33C12.44 21.33 12.44 21.33 12.44 21.33C12.42 21.33 12.41 21.34 12.39 21.34C12.29 21.34 12.18 21.37 12.08 21.4C12.06 21.41 12.03 21.42 12 21.43C11.99 21.43 11.98 21.44 11.97 21.44L5.5 24.63C5.5 24.63 5.5 24.63 5.5 24.64L1.71 26.46C1.67 26.47 1.63 26.5 1.58 26.53C0.08 27.53 -0.44 29.5 0.39 31.12C0.83 31.98 1.58 32.61 2.5 32.9C2.86 33.01 3.22 33.06 3.58 33.06C4.16 33.06 4.73 32.92 5.26 32.64L8.03 31.16L12.56 28.82L15.27 28.81L4.39 39.64C4.39 39.64 4.39 39.64 4.39 39.64L1.71 42.31C1.08 42.94 0.73 43.77 0.73 44.66C0.73 45.55 1.08 46.39 1.71 47.02C2.36 47.67 3.21 47.99 4.07 47.99C4.92 47.99 5.78 47.67 6.43 47.02L9.06 44.4L12.54 41.8L14.34 43.6L10.82 47.11C10.82 47.11 10.82 47.11 10.81 47.11L8.14 49.77C7.5 50.4 7.16 51.24 7.16 52.13C7.16 53.02 7.5 53.86 8.14 54.49C8.79 55.13 9.64 55.46 10.5 55.46C11.35 55.46 12.21 55.13 12.86 54.49L15.54 51.82L19.82 47.55C19.82 47.55 19.82 47.55 19.82 47.55L21.84 45.55L21.83 45.54C21.85 45.53 21.87 45.53 21.88 45.51L32.21 34.2L39.15 35.18C39.2 35.19 39.25 35.19 39.3 35.19C39.43 35.19 39.56 35.16 39.68 35.12C39.71 35.11 39.74 35.09 39.78 35.07C39.81 35.05 39.86 35.04 39.89 35.02L46.32 30.75C46.34 30.73 46.35 30.71 46.38 30.69C46.4 30.67 46.43 30.66 46.46 30.64L49 28.26C50.32 27.02 50.51 24.99 49.42 23.53ZM4.26 30.76C3.91 30.94 3.52 30.98 3.14 30.86C2.77 30.74 2.46 30.49 2.29 30.14C1.96 29.52 2.15 28.75 2.71 28.34L5.34 27.08L5.97 28.92L6.24 29.7L4.26 30.76ZM11.25 27.1L8.15 28.7L7.64 27.21L7.28 26.13L11.33 24.13L11.25 27.1ZM41.45 13.86C41.45 15.7 41.01 17.43 40.25 18.98L31.89 15.18C31.8 14.03 31.21 13.03 30.31 12.4L33.24 2.68C38 4.2 41.45 8.63 41.45 13.86ZM17.87 13.86C17.87 7.39 23.16 2.13 29.66 2.13C30.17 2.13 30.66 2.17 31.15 2.23L28.29 11.74C28.25 11.74 28.21 11.73 28.17 11.73C26.11 11.73 24.43 13.4 24.43 15.46C24.43 17.52 26.11 19.19 28.17 19.19C29.56 19.19 30.76 18.43 31.41 17.3L39.13 20.81C36.98 23.71 33.54 25.59 29.66 25.59C23.16 25.59 17.87 20.33 17.87 13.86ZM29.78 15.46C29.78 16.34 29.06 17.06 28.17 17.06C27.28 17.06 26.56 16.34 26.56 15.46C26.56 14.58 27.28 13.86 28.17 13.86C29.06 13.86 29.78 14.58 29.78 15.46ZM4.92 45.51C4.45 45.98 3.69 45.98 3.22 45.51C2.99 45.28 2.86 44.98 2.86 44.66C2.86 44.35 2.99 44.05 3.22 43.82L5.14 41.9L6.84 43.6L4.92 45.51ZM11.35 52.98C10.88 53.44 10.11 53.44 9.64 52.98C9.42 52.75 9.29 52.45 9.29 52.13C9.29 51.81 9.42 51.51 9.64 51.29L11.57 49.37L12.37 50.17L13.27 51.06L11.35 52.98ZM18.32 46.04C18.31 46.04 18.31 46.04 18.31 46.04L14.78 49.56L13.98 48.76L13.08 47.86L16.61 44.35C16.61 44.35 16.61 44.35 16.61 44.35C16.61 44.35 16.61 44.35 16.61 44.35C16.69 44.27 16.74 44.17 16.79 44.08C16.8 44.05 16.83 44.03 16.84 44C16.87 43.92 16.88 43.83 16.89 43.74C16.9 43.69 16.92 43.65 16.92 43.6C16.92 43.53 16.89 43.46 16.88 43.39C16.87 43.32 16.87 43.26 16.84 43.2C16.8 43.1 16.73 43.01 16.66 42.92C16.64 42.9 16.63 42.87 16.61 42.84C16.61 42.84 16.61 42.84 16.61 42.84C16.61 42.84 16.61 42.84 16.61 42.84L13.39 39.64C13.36 39.61 13.31 39.59 13.28 39.56C13.22 39.52 13.16 39.48 13.1 39.45C13.04 39.42 12.98 39.4 12.92 39.38C12.85 39.36 12.78 39.35 12.71 39.34C12.64 39.34 12.58 39.35 12.52 39.35C12.45 39.36 12.38 39.37 12.31 39.39C12.24 39.42 12.18 39.45 12.12 39.48C12.08 39.51 12.04 39.51 12 39.54L8.45 42.19L6.65 40.39L11.45 35.62L20.17 44.2L18.32 46.04ZM31.95 32C31.92 32 31.89 32.01 31.86 32.01C31.78 32.01 31.71 32.01 31.63 32.02C31.57 32.03 31.51 32.05 31.46 32.07C31.39 32.09 31.33 32.12 31.26 32.16C31.2 32.2 31.15 32.23 31.1 32.28C31.07 32.3 31.04 32.32 31.02 32.34L21.62 42.63L12.96 34.12L18.63 28.48C19.05 28.07 19.05 27.39 18.63 26.97C18.42 26.76 18.15 26.66 17.87 26.66L17.87 26.66L13.43 26.69L13.49 23.47L19.7 23.53C22.23 26.11 25.76 27.73 29.66 27.73C30.53 27.73 31.39 27.64 32.22 27.48C32.3 27.55 32.38 27.61 32.48 27.65L37.3 29.57L37.6 31.09L37.96 32.86L31.95 32ZM40.04 32.36L39.41 29.24L42.3 27.08L43.06 28.09L44.2 29.6L40.04 32.36ZM47.54 26.7L45.87 28.27L44 25.8L45.67 24.52C45.98 24.28 46.37 24.19 46.75 24.24C47.14 24.29 47.48 24.49 47.71 24.8C48.15 25.39 48.07 26.2 47.54 26.7Z" fill="#2E2F42" fill-opacity="1.000000" fill-rule="nonzero"/>
</svg>
